<?xml version="1.0" encoding="UTF-8"?>
<svg id="katman_2" data-name="katman 2" xmlns="http://www.w3.org/2000/svg" viewBox="0 0 771.76 802">
  <defs>
    <style>
      .cls-1 {
        fill: #6d3a07;
      }

      .cls-2 {
        fill: #777;
      }

      .cls-3 {
        fill: #5b5758;
      }

      .cls-4 {
        fill: #bc223c;
      }

      .cls-5 {
        fill: none;
        stroke: #c4c4c4;
        stroke-linecap: round;
        stroke-linejoin: round;
        stroke-width: 17.97px;
      }

      .cls-6 {
        fill: #cecece;
      }

      .cls-7 {
        fill: #84964b;
      }

      .cls-8 {
        fill: #936427;
      }

      .cls-9 {
        fill: #7f4403;
      }

      .cls-10 {
        fill: #323520;
      }

      .cls-11 {
        fill: #c4c4c4;
      }

      .cls-12 {
        fill: #686868;
      }

      .cls-13 {
        fill: #ad1729;
      }

      .cls-14 {
        fill: #751227;
      }

      .cls-15 {
        fill: #9b9b98;
      }

      .cls-16 {
        fill: #b27b2b;
      }

      .cls-17 {
        fill: #c0c1bb;
      }

      .cls-18 {
        fill: #84847e;
      }

      .cls-19 {
        fill: #e09620;
      }

      .cls-20 {
        fill: #eaeaea;
      }

      .cls-21 {
        fill: #96152b;
      }

      .cls-22 {
        fill: #afafae;
      }

      .cls-23 {
        fill: #0d4248;
      }

      .cls-24 {
        fill: #5b6339;
      }
    </style>
  </defs>
  <g id="katman_2-2" data-name="katman 2">
    <g>
      <ellipse class="cls-7" cx="385.88" cy="704.31" rx="385.88" ry="97.69"/>
      <path class="cls-24" d="M694.48,730.47c-25.14,12.07-66.43,13.36-89.2,24.75-4.21.48-7.67.99-10.11,1.64-21.12,5.53-51.07,11.43-98.13,1.84-47.09-9.59-77.74,21.25-113.15-.39-35.38-21.62-110.24-16.12-165.91-17.9-250.17-8.02-27.82-20.26-27.82-20.26,0,0,3.5-29.4,7.91-38.9,4.43-9.48,32.79-52.77,47.71-68.17,1.23-1.25,2.48-2.4,3.78-3.41,12.33-.78,25.68-2.16,39.87-4,3.97,1.34,7.95,3.05,11.92,5.03,20.09,10.09,48.06,23.52,105.66,45.16,57.61,21.62,94.1-27.45,165.62-.58,40.37,15.19,96.42,41.11,123.24,62.17,4.47,3.51,3.73,10.56-1.39,13.02h0Z"/>
      <path class="cls-9" d="M384.98,691.81c-4.85.98-7.41-5.55-3.17-8.08,6.59-3.93,17.55-8.54,35.73-13.31,49.44-12.96,70.08-231.35,70.08-311.03s-71.04-150.48-159.84-140.64c-74.45,8.25-121.9-28.37-135.3-40.42-2.09-1.88-1.87-5.19.41-6.83h0c1.83-1.31,4.33-1.06,5.83.61,7.9,8.87,35.82,34.02,97.4,32.79,4.03-.08,5.86-5.16,2.78-7.76-15.63-13.19-45.62-43.06-44.96-77.59.04-2.06,1.61-3.77,3.63-4.14l.34-.06c2.26-.41,4.45.96,5.04,3.19,4.07,15.37,23.26,70.88,89.31,79.34,66.26,8.49,101.43,23.41,125.41,51.39,2.98,3.48,8.65.62,7.61-3.84-6.87-29.42-28.72-86.99-96.66-115.47-91.06-38.18-106.82-73.97-111.25-100.74-.23-1.4.25-2.81,1.25-3.81l.61-.61c2.18-2.18,5.86-1.51,7.13,1.3,7.21,15.89,30.41,59.12,74.18,72.55,37.25,11.42,64.23,26.1,77.37,34.11,3.26,1.99,7.31-.83,6.59-4.58-4.17-21.56-9.61-72.95,19.47-120.08.99-1.61,2.93-2.4,4.77-1.98l4.48,1.02c2.62.6,4.11,3.36,3.14,5.87-7.12,18.41-30.32,86.83-3.13,135.44,25.08,44.84,40.83,75.09,46.78,93.49,1.24,3.82,6.45,4.26,8.18.63,9.66-20.26,29.16-61.97,35.04-80.68,7.92-25.2,6.96-45.12-9.84-70.32-14.81-22.21-18.8-44.98-17.07-61.08.33-3.04,3.68-4.74,6.39-3.34l.94.48c1.51.77,2.44,2.31,2.39,4.01-.17,6.05.39,21.35,8.79,36.66,4.6,8.37,8.71,14.14,11.98,18.61,2.54,3.48,8.02,1.62,7.97-2.68-.11-9.29-.68-21.11-2.44-32.01-.59-3.64,3.39-6.3,6.58-4.45l1.89,1.09c1.05.61,1.8,1.6,2.08,2.79,2.6,11.31,15.12,72.77-5.23,131.62-1.29,3.73,2.52,7.15,6.07,5.42,11.05-5.4,28.43-13.58,37.39-16.15,12.53-3.6,33.43-23.68,41.07-49.33.98-3.29,5.08-4.35,7.43-1.85l1.13,1.2c.93.99,1.35,2.35,1.15,3.69-.52,3.47-1.75,10.47-3.89,16.13-1.16,3.06,1.32,6.24,4.57,5.9,5.31-.55,11.88-.94,16.09-.19,1.37.24,2.51,1.14,3.13,2.38l.57,1.14c1.49,2.99-.72,6.51-4.06,6.37-10.2-.41-28.53,1.17-41.74,15.37-19.26,20.7-69.84,28.98-82.98,57.6-9,19.6-11.24,49.08-11.76,65.71-.13,4.09,4.92,6.12,7.66,3.08,12.22-13.58,37.89-36.96,70.17-37.47,39.72-.63,74.24-37.27,83.96-61.55,1.37-3.43,6.05-3.76,7.89-.56l.78,1.35c.53.92.72,1.97.51,3.02-1.47,7.6-10.12,39.84-53.37,62.25-49.32,25.56-111.24,28.8-111.24,110.88s9.36,240.83,24.12,265.31c12.24,20.3,78.42,42.32,107.45,66.49,3.88,3.23.04,9.4-4.6,7.41-17.41-7.49-46.33-18.61-78.01-25.3-51.12-10.8-51.84-21.6-51.84-21.6,0,0,3.35,16.08,14.62,30.3,2.73,3.44-.51,8.29-4.71,7.01-13.56-4.15-32.46-12.33-42.08-27.27-1.39-2.16-4.3-2.7-6.34-1.14-9.56,7.3-35.18,25.24-62.45,30.4-4.18.79-6.95-4.24-4.05-7.35,3.61-3.87,7.9-8.62,11.86-13.38,2.98-3.58-.95-8.78-5.19-6.84-9.71,4.45-22.7,8.6-36.31,7.71-14.4-.93-26.95.67-35.68,2.43v-.03Z"/>
      <path class="cls-14" d="M433.04,404.37s53.23,7.57,57.29,46.63c2.94,28.27-76.3-33.48-74.92-34.12,1.38-.64,17.63-12.5,17.63-12.5h0Z"/>
      <path class="cls-22" d="M400.5,338.27s30.37,11.4,30.37,41.64c0,0-5.29,32.77,16.78,36.96l-33.65,20.62-42.19,15.76-3.35-4.82-9.37,6.74-33.35-49.44,4.34-3.76c4.95-4.23,8.1-10.26,8.53-16.76,1.02-14.51,7.75-41.41,43.29-46.68,0,0,5.03-27.13,34.19-27.13s34.32,28.55,34.32,28.55c0,0-3.72-8.51-17.15-10.8,0,0,17.15,11.27,17.15,33.95,0,19.68-4.15,32.42,11.71,41.25h.02c2.27,1.84,5.14,3.13,8.68,3.76,0,0-28.68,7.32-32.05-22.33-3.35-29.63-9.22-53.74-38.27-47.52h0Z"/>
      <path class="cls-15" d="M430.87,379.91c0-30.24-30.37-41.64-30.37-41.64.23-.05.43-.06.65-.1-.95.07-1.91.2-2.87.42,0,0,.22.19.6.54,3.63,3.37,22.34,21.85,16.47,40.13-6.49,20.21,11.4,47.51,13.06,46.83.54-.22,4.07-1.31,8.54-2.67l10.69-6.55c-22.07-4.19-16.78-36.96-16.78-36.96h0Z"/>
      <path class="cls-1" d="M656.23,699.69c-9.07-5.39-43.42-17.22-67.62-32.94-24.2-15.72-30.19-27.7-44.41-59.38-14.22-31.69-28.22-77.22-31.19-114.53-1.62-20.39-19.79-49.46-27.13-57.49-1.4,18.68-2.64,30.16-5.09,50.61l6.03,31.3s40.67,149.5,40.91,153.49c.22,3.45,28.5,18.05,39.97,23.73-7.3-11.38-10.04-22.4-10.46-24.24.54,1.79,5.58,11.55,51.77,21.31,18.58,3.92,36.18,9.37,51.09,14.71,1.19-1.57.58-3.91-3.88-6.56h0Z"/>
      <path class="cls-10" d="M202.11,694.7s-115.84,31.62-97.02,35c81.23,14.6,208.03-.19,228.05,0s54.87-1.1,64.59,5.92c24.52,17.69,46.16,6.64,70.68,4.79,24.51-1.85,49.11-12.33,63.95-1.48,14.84,10.85,31.6,17.93,47.21,17.93s27.13-16.81,46.22-25.23,62.84-11.76,53.97-16.17c-8.87-4.41-213.78-35.43-213.78-35.43l-96.62-15.02-167.24,29.69h0Z"/>
      <path class="cls-18" d="M370.02,453.16s-38.15,25.34-62.53,95.09l90.48,1.45,6.63-66.21-34.57-30.33h-.01Z"/>
      <path class="cls-8" d="M241.03,426.49s5.71,3.29,7.03,8.9l-10.3,34.52-13.57,2.68-2.27-8.41,16.83-37.09,2.28-.61h0Z"/>
      <path class="cls-16" d="M261.05,444.5c.04-10.16-6.22-17.42-6.22-17.42l-22.46,27.59c-1.95,2.97-3.66,6.08-5.11,9.32h0c-.62,1.37-.79,2.9-.49,4.38l1.23,6.07,34.06-9.75-1.02-20.19h0Z"/>
      <path class="cls-19" d="M286.45,444.08l-7.05-8.69s-41.07,18.28-49.55,32.22l7.91,8.57s49.18-23.38,49.88-23.51c.71-.14-1.2-8.58-1.2-8.58h0Z"/>
      <path class="cls-23" d="M237.71,424.28l-17.45,36.08c-2.36,4.88-2.14,10.62.59,15.31l43.68,75.03,71.22-28.64-43.34-80.45-62.64,26.04c-2.82,1.17-5.99-.63-6.43-3.66h0l17.69-37.5-3.32-2.2h0Z"/>
      <g>
        <path class="cls-7" d="M365.84,234.71s-40.5,3.6-41.58,51.66c0,0,49.14-6.48,47.88-46.8,0,0-18.72,14.67-27,22.77,0,0,18.72-22.77,20.7-27.63h0Z"/>
        <path class="cls-7" d="M267.33,231.54s-39.29,10.47-32.13,58.01c0,0,47.31-14.79,39.17-54.3,0,0-15.94,17.65-22.71,27.05,0,0,14.55-25.63,15.67-30.76Z"/>
        <path class="cls-7" d="M227.7,221.6s-39.29-10.47-56.74,34.32c0,0,48.39,10.72,61-27.6,0,0-22.61,7.38-33.16,12.16,0,0,25.38-14.99,28.9-18.88Z"/>
        <path class="cls-7" d="M239.9,161.02s12.5-46.89-40.96-67.72c0,0-12.79,57.75,32.94,72.8,0,0-8.81-26.98-14.51-39.57,0,0,17.89,30.29,22.53,34.49h0Z"/>
        <path class="cls-7" d="M370.36,178.88s2.91-43.5-47.82-52.62c0,0-1.29,53.13,41.63,58.49,0,0-12.43-22.27-19.64-32.38,0,0,21.01,23.61,25.83,26.51Z"/>
        <path class="cls-7" d="M279.76,70.51s-23.46-29.75-61.49-6.09c0,0,30.11,35.02,60.91,13.49,0,0-20.99-7.12-31.52-9.45,0,0,27.3,2.99,32.1,2.06h0Z"/>
        <path class="cls-7" d="M349.5,65.02s13.61-35.36-26.15-55.99c0,0-14.75,43.77,19.5,59.27,0,0-4.59-21.68-7.97-31.93,0,0,11.36,25.01,14.62,28.66h0Z"/>
        <path class="cls-7" d="M496.61,141.59s36.08-10.19,28.83-53.92c0,0-43.41,14.28-35.37,50.6,0,0,14.45-16.49,20.56-25.25,0,0-13.06,23.83-14.02,28.58h0Z"/>
        <path class="cls-7" d="M485.55,80.67s39.22-13.46,28.54-61.31c0,0-47.07,18.42-35.97,58.03,0,0,14.95-19.1,21.17-29.14,0,0-12.97,27.12-13.74,32.41h0Z"/>
        <path class="cls-7" d="M526.65,195.41s30.91-19.44,12.1-58.31c0,0-36.64,25.28-19.12,57,0,0,8.96-19.39,12.27-29.25,0,0-5.65,25.86-5.24,30.56h-.01Z"/>
        <path class="cls-7" d="M611.9,160.21s40.1-12.15,31.06-60.88c0,0-48.22,16.87-38.44,57.3,0,0,15.8-18.74,22.44-28.66,0,0-14.09,26.92-15.06,32.24Z"/>
        <path class="cls-7" d="M601.89,255.43s30.06-9.1,23.28-45.62c0,0-36.14,12.64-28.81,42.94,0,0,11.84-14.05,16.82-21.48,0,0-10.56,20.17-11.29,24.16h0Z"/>
        <path class="cls-7" d="M658.45,234.85s41.26-8.71,36.41-58.36c0,0-49.8,12.75-43.5,54.13,0,0,17.46-17.43,24.98-26.79,0,0-16.45,25.77-17.89,31.02h0Z"/>
        <path class="cls-7" d="M696.35,280.18s14.07,39.76,62.64,28.41c0,0-19.19-47.69-59.38-36,0,0,19.57,15.01,29.85,21.24,0,0-27.71-12.92-33.11-13.65Z"/>
        <path class="cls-7" d="M642.72,300.12s14.07,39.76,62.64,28.41c0,0-19.19-47.69-59.38-36,0,0,19.57,15.01,29.85,21.24,0,0-27.71-12.92-33.11-13.65Z"/>
        <path class="cls-7" d="M402.15,87.83s25.89-44.1-22.53-80.3c0,0-29.25,55.05,12.95,83.2,0,0-1.35-29.88-3.6-44.27,0,0,9.64,35.79,13.17,41.37h0Z"/>
        <path class="cls-7" d="M184.27,194.36s-39.89-35.47-86.8,6.75c0,0,50.42,41.14,87.83,3.64,0,0-30.87-4.69-46.07-5.31,0,0,38.61-2.6,45.04-5.08Z"/>
        <path class="cls-7" d="M141.93,129.71s33.84-1.44,40.14,31.14c0,0-34.92,5.58-40.14-31.14Z"/>
        <path class="cls-7" d="M298.94,93.3s15.66,30.03-11.17,49.56c0,0-19.86-29.26,11.17-49.56Z"/>
        <path class="cls-7" d="M400.15,155.18s31.21,13.15,23,45.3c0,0-33.96-9.86-23-45.3Z"/>
        <path class="cls-7" d="M421.38,0s25.05,12.63,16.45,38.73c0,0-27.51-10.07-16.45-38.73Z"/>
        <path class="cls-7" d="M617.37,72.34s5.28,20.1-13.43,28.12c0,0-7.9-20.21,13.43-28.12Z"/>
        <path class="cls-7" d="M740.54,236.34s-5.28,22.73-28.08,20.91c0,0,2.73-24.21,28.08-20.91Z"/>
        <path class="cls-7" d="M293.94,256.19s3.44-24.25,27.45-24.43c0,0-.64,25.56-27.45,24.43Z"/>
      </g>
      <path class="cls-22" d="M173.58,671.87s-6.96.24-6,8.16c0,0-18.72,16.8-40.08,23.04-17.85,5.22-23.97,13.11-25.5,21.59-.47,2.62,1.5,5.05,4.17,5.05h92.14c5.22,0,10.22-2.07,13.91-5.76h0c3.9-3.9,5.98-9.26,5.74-14.76l-.94-21.59-43.44-15.72h0Z"/>
      <path class="cls-15" d="M371.82,453.23s-60.48,43.92-14.4,145.8l83.52,14.04s98.69-165.65,6.71-196.2l-75.83,36.37h0Z"/>
      <path class="cls-22" d="M209.1,580.31s-13.5,10.62-5.4,23.76c0,0-13.08,35.4-30.12,67.8,0,0,11.76,22.92,43.44,15.72,0,0,9.09-14.49,20.79-25.92,11.7-11.43,21.55-33.87,21.55-33.87l-20.23-21.92-30.03-25.56h0Z"/>
      <path class="cls-22" d="M440.94,613.07l2.41,12.14c6.77,34.07-15.2,67.22-49.21,74.26h0s-61.56,17.64-132.84-69.84l-52.2-49.32s2.16-50.58,54-33.12c51.84,17.46,94.32,51.84,94.32,51.84l37.6-3.69,45.92,17.73h0Z"/>
      <path class="cls-22" d="M318.15,627.69c-5.79,15.99-1.89,36.65,1.08,54.21-17.7-10.64-37.37-27.08-57.89-52.28l-52.23-49.31s2.16-50.57,53.98-33.1c18.28,6.15,35.39,14.37,49.9,22.5,4.76,11.54,12.89,36.47,5.16,57.98Z"/>
      <path class="cls-17" d="M486.79,480.28l-1.08-.9c-.85-12.98-3.41-24.48-8.13-29.82-9.16-10.46-9.79-33.86-45.77-25.11l15.81-7.59c30.32,10.06,39.93,34.76,39.16,63.42h.01Z"/>
      <path class="cls-22" d="M357.42,599.03l4.2-51.48c-9-8.52-39.96-13.08-63.12-18.24s-37.8-27-46.32-27.72c-8.52-.72-9.24,6.84-2.76,9.48,6.48,2.64,10.68,12,10.68,12l-12.16-3.53c-3.64-1.06-7.22,1.91-6.83,5.69,1.23,12.17,11.24,19.15,11.24,19.15l59.35,36.41,45.72,18.24Z"/>
      <path class="cls-13" d="M363,461.79s77.08-49.16,93.96-34.96l-9.31-9.96s-27.6-4.49-79.18,31.56l-5.46,13.37h-.01Z"/>
      <path class="cls-12" d="M440.18,660.7c-7.56,19.18-24.36,34.28-46.03,38.77,0,0-5.08,1.45-14,1.45-22.16,0-68.04-8.94-118.84-71.3l-1.94-1.84s6.95-11.69,7.13-21.75c0,0-.89-16.74,12.25,10.26,13.13,27,66.42,71.45,107.82,63.72,34.65-6.48,50.11-21.53,53.61-19.31h0Z"/>
      <path class="cls-12" d="M443.35,625.21c.52,2.61.86,5.23,1.04,7.84l-13.26-2.31-50.77-33.49s37.89,11.29,53.98-28.3c16.11-39.59,45.81-56.79,45.73-94.39l6.74,5.72c-1.49,58.28-45.88,132.79-45.88,132.79l2.42,12.14h0Z"/>
      <path class="cls-2" d="M363.36,445.79c-10.92-12.71-20.34-26.64-29.26-40.8,14.62-1.07,28.1-7.59,36.86-18.81,1.23-1.58,3.69-.02,2.81,1.77-6.25,12.58-19.9,21.26-34.03,22.71l2.4-4.84c7.83,12.9,15.24,26.08,21.22,39.96h0Z"/>
      <path class="cls-2" d="M404.88,354.96c-30.48-6.26-43.75,4.43-52.63,29.31-.54,1.52-2.81,1.05-2.67-.56.32-3.93,1.08-7.85,2.37-11.68,7.19-23.87,33.27-30.06,52.93-17.07h0Z"/>
      <g>
        <rect class="cls-3" x="135.55" y="458.68" width="45.9" height="23.77" transform="translate(-329.53 562.11) rotate(-82.01)"/>
        <rect class="cls-11" x="156.26" y="429.72" width="12.6" height="23.77" transform="translate(-297.36 541.21) rotate(-82.01)"/>
        <rect class="cls-11" x="59.08" y="576.96" width="179.3" height="11.88" transform="translate(-449.19 649.17) rotate(-82.01)"/>
        <rect class="cls-20" x="47.32" y="575.3" width="179.3" height="11.88" transform="translate(-457.67 636.09) rotate(-82.01)"/>
        <polyline class="cls-5" points="188.14 506.54 167.08 494.95 143.54 491.64 120.1 496.99"/>
      </g>
      <path class="cls-22" d="M361.62,547.55s20.26.46,22.28-14.47c2.01-14.93,7.04-63.78,47.93-87.28,40.89-23.5,59.6-6.11,57.73,30.39-1.87,36.5-55.77,113.79-69.24,119.4-13.47,5.61-62.89,3.45-62.89,3.45"/>
      <path class="cls-13" d="M447.66,416.87s49.44.36,53.4,59.76,31.82,194.25,102.02,210.09c44.3,10,66.57,19.53,76.98,25.2,1.91,1.04.94,3.95-1.21,3.63-19.22-2.83-62.46-5.7-74.11,23.16-15.12,37.44-60.84,9-72.36-14.04-11.52-23.04-79.92,52.56-102.6-9-22.68-61.56,16.56-115.2,30.24-152.64s12.6-33.12,13.68-37.44,26.34-76.72-28.2-106.56l2.16-2.16h0Z"/>
      <path class="cls-21" d="M608.96,731.14v.02c-1.66,2.2-3.09,4.71-4.23,7.54-15.12,37.45-60.85,9.01-72.36-14.04,0,0,0-.02-.02-.06-1.19-3.05-40.33-104.89-37.5-206.62,2.87-103.29-52.49-101.11-52.49-101.11h5.3s49.44.37,53.39,59.77c3.11,46.85,17.88,145.45,58.45,192.78q27.05,31.55.02.04c22.46,36.18,49.44,61.69,49.44,61.69h0Z"/>
      <path class="cls-2" d="M465.97,440.22c-19.79-1.91-36.67,8.82-48.93,23.08-11.31,13.13-19.19,27.98-28.18,42.94,1.75-11.73,5.67-23.18,11.26-33.7,5.77-10.72,13.64-20.56,23.77-27.49,11.99-8.2,28.78-11.94,42.08-4.83h0Z"/>
      <path class="cls-13" d="M532.35,724.59c-11.62-22.81-79.92,52.57-102.58-8.92-22.68-61.56,23.85-113.31,30.24-152.64,13.44-82.74,2.21-94.05-42.2-131.31,0,0,74.61-49.53,77.04,86.26,1.83,101.76,36.31,203.57,37.5,206.62h0Z"/>
      <path class="cls-4" d="M500.55,700.32c-8.91-42.19-24.11-126.95-13.69-172.93,0,0-12.96,42.28-24.74,66.04-11.78,23.76-33.75,75.55-17.55,111.26,6.54,14.41,17.83,20.58,28.99,22.83,16.15,3.25,30.39-11.07,26.99-27.19h0Z"/>
      <path class="cls-13" d="M363,461.79s54.4-28.12,81.96-5.55l-1.45-19.72-20.65-7.77-52.9,23.63-6.97,9.41h.01Z"/>
      <path class="cls-22" d="M364.77,548.96l2.64-2.54-12.6-3.11-1.73,1.07s5.5,5.32,5.67,5.39,4.86.77,4.86.77l1.16-1.59h0Z"/>
      <path class="cls-2" d="M354.8,543.31s25.46,5.84,27.98,27.8c0,0,5.04-17.64-6.3-26.28l-21.68-1.52h0Z"/>
      <path class="cls-6" d="M209.1,580.3h0s-13.5,10.63-5.4,23.76c0,0-13.08,35.4-30.12,67.8,0,0-6.96.24-6,8.16,0,0-18.72,16.8-40.08,23.04-17.85,5.22-23.97,13.11-25.5,21.59-.37,2.07.79,4,2.6,4.72,3.1-6.83,11.97-18.64,36.63-20.72,35.05-2.95,49.03-42.73,58.09-64s24.42-74.63,38.79-81.33c14.38-6.7,25.34-4.98,31.97-12.63.26-.3.36-.59.36-.88-2.43-.91-4.89-1.79-7.37-2.62-51.83-17.47-53.98,33.1-53.98,33.1h0Z"/>
      <path class="cls-12" d="M253.2,602.55c-12.72-15.62-44.08-22.25-44.08-22.25,0,0,1.73-40.43,39.14-36.5-2.48-.19-10.69-.06-20.26,8.1-11.51,9.85-9.59,22.07,7.19,31.36,16.8,9.29,18.01,19.29,18.01,19.29h0Z"/>
      <path class="cls-2" d="M217.84,611.49c10.56.9,24.18,9.84,24.18,9.84-10.98-15.66-38.32-17.26-38.32-17.26,0,0-1.42,3.84-3.92,10.13h0s7.5-3.61,18.06-2.71h0Z"/>
      <path class="cls-2" d="M206.74,683.78s-20.28-5.04-24.48-10.56-.66-17.37-.66-17.37h0c-2.54,5.31-5.23,10.7-8.02,16.01,9.92,15.92,33.16,11.92,33.16,11.92Z"/>
      <path class="cls-2" d="M167.59,680.03s-11.71,10.49-27.17,17.97v.02s17.01-4.27,26.01-10.27c0,0,15,6.24,27.24,3,0,0-19.76-.91-26.08-10.72Z"/>
      <path class="cls-6" d="M270.46,549.82s-4.76-11.11,8.43-13.47c6.21-1.11,11.84-4.21,16.13-7.97-21.15-6.42-34.75-26.11-42.84-26.79-8.52-.72-9.24,6.84-2.76,9.48,6.48,2.64,10.68,12,10.68,12l-12.16-3.53c-3.64-1.06-7.22,1.91-6.83,5.69,1.23,12.17,11.24,19.15,11.24,19.15l14.94,9.16c1.71-2.01,3.16-3.72,3.16-3.72h.01Z"/>
      <path class="cls-2" d="M252.36,544.38c19.02,4.91,37.78,11.47,55.18,20.73,3.18,1.86,6.91,4.04,9.73,6.38,1.65,1.34,3.59,3.04,5.15,4.44,12.7,10.18,28.05,16.66,43.76,20.68,5.79,1.47,11.7,2.47,17.72,2.96-6.03.51-12.14.09-18.16-.8-17.29-2.85-34.56-9.38-47.94-20.95-1.03-.91-2.32-2-3.35-2.86-2.61-2.18-6.14-4.29-9.07-6.09-16.97-9.58-35.07-16.84-53.03-24.52h0v.03Z"/>
    </g>
  </g>
</svg>