<?xml version="1.0" encoding="UTF-8"?>
<svg id="katman_2" xmlns="http://www.w3.org/2000/svg" version="1.1" viewBox="0 0 1404.6 399.8">
  <!-- Generator: Adobe Illustrator 30.1.0, SVG Export Plug-In . SVG Version: 2.1.1 Build 136)  -->
  <defs>
    <style>
      .st0 {
        fill: #6d3a07;
      }

      .st1 {
        fill: #777;
      }

      .st2 {
        fill: #5b5758;
      }

      .st3 {
        fill: #bc223c;
      }

      .st4 {
        fill: none;
        stroke: #c4c4c4;
        stroke-linecap: round;
        stroke-linejoin: round;
        stroke-width: 18px;
      }

      .st5 {
        fill: #cecece;
      }

      .st6 {
        fill: #84964b;
      }

      .st7 {
        fill: #936427;
      }

      .st8 {
        fill: #7f4403;
      }

      .st9 {
        fill: #323520;
      }

      .st10 {
        fill: #c4c4c4;
      }

      .st11 {
        fill: #686868;
      }

      .st12 {
        fill: #ad1729;
      }

      .st13 {
        fill: #751227;
      }

      .st14 {
        fill: #9b9b98;
      }

      .st15 {
        fill: #4c2c0f;
      }

      .st16 {
        fill: #b27b2b;
      }

      .st17 {
        fill: #c0c1bb;
      }

      .st18 {
        fill: #84847e;
      }

      .st19 {
        fill: #e09620;
      }

      .st20 {
        fill: #eaeaea;
      }

      .st21 {
        fill: #96152b;
      }

      .st22 {
        fill: #afafae;
      }

      .st23 {
        fill: #0d4248;
      }

      .st24 {
        fill: #5b6339;
      }
    </style>
  </defs>
  <ellipse class="st6" cx="192.4" cy="351.1" rx="192.4" ry="48.7"/>
  <path class="st24" d="M346.2,364.1c-12.5,6-33.1,6.7-44.5,12.3-2.1.2-3.8.5-5,.8-10.5,2.8-25.5,5.7-48.9.9-23.5-4.8-38.8,10.6-56.4-.2-17.6-10.8-55-8-82.7-8.9-124.7-4-13.9-10.1-13.9-10.1,0,0,1.7-14.7,3.9-19.4,2.2-4.7,16.3-26.3,23.8-34,.6-.6,1.2-1.2,1.9-1.7,6.2-.4,12.8-1.1,19.9-2,2,.7,4,1.5,5.9,2.5,10,5,24,11.7,52.7,22.5,28.7,10.8,46.9-13.7,82.6-.3,20.1,7.6,48.1,20.5,61.4,31,2.2,1.8,1.9,5.3-.7,6.5h0Z"/>
  <path class="st8" d="M191.9,344.9c-2.4.5-3.7-2.8-1.6-4,3.3-2,8.8-4.3,17.8-6.6,24.6-6.5,34.9-115.3,34.9-155.1s-35.4-75-79.7-70.1c-37.1,4.1-60.8-14.1-67.4-20.2-1-.9-.9-2.6.2-3.4h0c.9-.7,2.2-.5,2.9.3,3.9,4.4,17.9,17,48.6,16.3,2,0,2.9-2.6,1.4-3.9-7.8-6.6-22.7-21.5-22.4-38.7,0-1,.8-1.9,1.8-2.1h.2c1.1-.2,2.2.5,2.5,1.6,2,7.7,11.6,35.3,44.5,39.5,33,4.2,50.6,11.7,62.5,25.6,1.5,1.7,4.3.3,3.8-1.9-3.4-14.7-14.3-43.4-48.2-57.6-45.4-19-53.2-36.9-55.5-50.2-.1-.7.1-1.4.6-1.9l.3-.3c1.1-1.1,2.9-.8,3.6.6,3.6,7.9,15.2,29.5,37,36.2,18.6,5.7,32,13,38.6,17,1.6,1,3.6-.4,3.3-2.3-2.1-10.8-4.8-36.4,9.7-59.9.5-.8,1.5-1.2,2.4-1l2.2.5c1.3.3,2.1,1.7,1.6,2.9-3.6,9.2-15.1,43.3-1.6,67.5,12.5,22.3,20.3,37.4,23.3,46.6.6,1.9,3.2,2.1,4.1.3,4.8-10.1,14.5-30.9,17.5-40.2,4-12.6,3.5-22.5-4.9-35-7.4-11.1-9.4-22.4-8.5-30.5.2-1.5,1.8-2.4,3.2-1.7l.5.2c.8.4,1.2,1.1,1.2,2,0,3,.2,10.6,4.4,18.3,2.3,4.2,4.3,7,6,9.3,1.3,1.7,4,.8,4-1.3,0-4.6-.3-10.5-1.2-16-.3-1.8,1.7-3.1,3.3-2.2l.9.5c.5.3.9.8,1,1.4,1.3,5.6,7.5,36.3-2.6,65.6-.6,1.9,1.3,3.6,3,2.7,5.5-2.7,14.2-6.8,18.6-8.1,6.2-1.8,16.7-11.8,20.5-24.6.5-1.6,2.5-2.2,3.7-.9l.6.6c.5.5.7,1.2.6,1.8-.3,1.7-.9,5.2-1.9,8-.6,1.5.7,3.1,2.3,2.9,2.6-.3,5.9-.5,8,0,.7.1,1.2.6,1.6,1.2l.3.6c.7,1.5-.4,3.2-2,3.2-5.1-.2-14.2.6-20.8,7.7-9.6,10.3-34.8,14.4-41.4,28.7-4.5,9.8-5.6,24.5-5.9,32.8,0,2,2.5,3.1,3.8,1.5,6.1-6.8,18.9-18.4,35-18.7,19.8-.3,37-18.6,41.9-30.7.7-1.7,3-1.9,3.9-.3l.4.7c.3.5.4,1,.2,1.5-.7,3.8-5,19.9-26.6,31-24.6,12.7-55.5,14.4-55.5,55.3s4.7,120.1,12,132.3c6.1,10.1,39.1,21.1,53.6,33.1,1.9,1.6,0,4.7-2.3,3.7-8.7-3.7-23.1-9.3-38.9-12.6-25.5-5.4-25.8-10.8-25.8-10.8,0,0,1.7,8,7.3,15.1,1.4,1.7-.2,4.1-2.4,3.5-6.8-2.1-16.2-6.1-21-13.6-.7-1.1-2.1-1.4-3.2-.6-4.8,3.6-17.5,12.6-31.1,15.1-2.1.4-3.5-2.1-2-3.7,1.8-1.9,3.9-4.3,5.9-6.7,1.5-1.8-.5-4.4-2.6-3.4-4.8,2.2-11.3,4.3-18.1,3.8-7.2-.5-13.4.3-17.8,1.2h0Z"/>
  <path class="st13" d="M215.9,201.6s26.5,3.8,28.6,23.2c1.5,14.1-38-16.7-37.4-17,.7-.3,8.8-6.2,8.8-6.2h0Z"/>
  <path class="st22" d="M199.6,168.6s15.1,5.7,15.1,20.8c0,0-2.6,16.3,8.4,18.4l-16.8,10.3-21,7.9-1.7-2.4-4.7,3.4-16.6-24.6,2.2-1.9c2.5-2.1,4-5.1,4.2-8.4.5-7.2,3.9-20.6,21.6-23.3,0,0,2.5-13.5,17-13.5s17.1,14.2,17.1,14.2c0,0-1.9-4.2-8.6-5.4,0,0,8.6,5.6,8.6,16.9s-2.1,16.2,5.8,20.6h0c1.1.9,2.6,1.6,4.3,1.9,0,0-14.3,3.6-16-11.1-1.7-14.8-4.6-26.8-19.1-23.7h0Z"/>
  <path class="st14" d="M214.8,189.4c0-15.1-15.1-20.8-15.1-20.8.1,0,.2,0,.3,0-.5,0-.9.1-1.4.2,0,0,.1,0,.3.3,1.8,1.7,11.1,10.9,8.2,20-3.2,10.1,5.7,23.7,6.5,23.3.3-.1,2-.6,4.3-1.3l5.3-3.3c-11-2.1-8.4-18.4-8.4-18.4h0Z"/>
  <path class="st0" d="M327.1,348.8c-4.5-2.7-21.6-8.6-33.7-16.4-12.1-7.8-15-13.8-22.1-29.6-7.1-15.8-14.1-38.5-15.6-57.1-.8-10.2-9.9-24.7-13.5-28.7-.7,9.3-1.3,15-2.5,25.2l3,15.6s20.3,74.5,20.4,76.5c.1,1.7,14.2,9,19.9,11.8-3.6-5.7-5-11.2-5.2-12.1.3.9,2.8,5.8,25.8,10.6,9.3,2,18,4.7,25.5,7.3.6-.8.3-2-1.9-3.3h0Z"/>
  <path class="st9" d="M100.8,346.3s-57.8,15.8-48.4,17.5c40.5,7.3,103.7,0,113.7,0s27.4-.5,32.2,3c12.2,8.8,23,3.3,35.2,2.4,12.2-.9,24.5-6.1,31.9-.7s15.8,8.9,23.5,8.9,13.5-8.4,23-12.6c9.5-4.2,31.3-5.9,26.9-8.1-4.4-2.2-106.6-17.7-106.6-17.7l-48.2-7.5-83.4,14.8h0Z"/>
  <path class="st18" d="M184.5,225.9s-19,12.6-31.2,47.4l45.1.7,3.3-33-17.2-15.1h0Z"/>
  <path class="st7" d="M120.2,212.6s2.8,1.6,3.5,4.4l-5.1,17.2-6.8,1.3-1.1-4.2,8.4-18.5,1.1-.3h0Z"/>
  <path class="st16" d="M130.1,221.6c0-5.1-3.1-8.7-3.1-8.7l-11.2,13.8c-1,1.5-1.8,3-2.6,4.6h0c-.3.7-.4,1.4-.2,2.2l.6,3,17-4.9-.5-10.1h0Z"/>
  <path class="st19" d="M142.8,221.4l-3.5-4.3s-20.5,9.1-24.7,16.1l3.9,4.3s24.5-11.7,24.9-11.7c.4,0-.6-4.3-.6-4.3h0Z"/>
  <path class="st23" d="M118.5,211.5l-8.7,18c-1.2,2.4-1.1,5.3.3,7.6l21.8,37.4,35.5-14.3-21.6-40.1-31.2,13c-1.4.6-3-.3-3.2-1.8h0l8.8-18.7-1.7-1.1h0Z"/>
  <g>
    <path class="st6" d="M182.4,117s-20.2,1.8-20.7,25.8c0,0,24.5-3.2,23.9-23.3,0,0-9.3,7.3-13.5,11.4,0,0,9.3-11.3,10.3-13.8h0Z"/>
    <path class="st6" d="M133.3,115.4s-19.6,5.2-16,28.9c0,0,23.6-7.4,19.5-27.1,0,0-7.9,8.8-11.3,13.5,0,0,7.2-12.8,7.8-15.3Z"/>
    <path class="st6" d="M113.5,110.5s-19.6-5.2-28.3,17.1c0,0,24.1,5.3,30.4-13.8,0,0-11.3,3.7-16.5,6.1,0,0,12.7-7.5,14.4-9.4Z"/>
    <path class="st6" d="M119.6,80.3s6.2-23.4-20.4-33.8c0,0-6.4,28.8,16.4,36.3,0,0-4.4-13.4-7.2-19.7,0,0,8.9,15.1,11.2,17.2h0Z"/>
    <path class="st6" d="M184.6,89.2s1.4-21.7-23.8-26.2c0,0-.6,26.5,20.8,29.2,0,0-6.2-11.1-9.8-16.1,0,0,10.5,11.8,12.9,13.2h0Z"/>
    <path class="st6" d="M139.5,35.2s-11.7-14.8-30.7-3c0,0,15,17.5,30.4,6.7,0,0-10.5-3.5-15.7-4.7,0,0,13.6,1.5,16,1h0Z"/>
    <path class="st6" d="M174.2,32.4s6.8-17.6-13-27.9c0,0-7.4,21.8,9.7,29.5,0,0-2.3-10.8-4-15.9,0,0,5.7,12.5,7.3,14.3h0Z"/>
    <path class="st6" d="M247.6,70.6s18-5.1,14.4-26.9c0,0-21.6,7.1-17.6,25.2,0,0,7.2-8.2,10.2-12.6,0,0-6.5,11.9-7,14.2h0Z"/>
    <path class="st6" d="M242.1,40.2s19.6-6.7,14.2-30.6c0,0-23.5,9.2-17.9,28.9,0,0,7.4-9.5,10.6-14.5,0,0-6.5,13.5-6.9,16.2h0Z"/>
    <path class="st6" d="M262.5,97.4s15.4-9.7,6-29.1c0,0-18.3,12.6-9.5,28.4,0,0,4.5-9.7,6.1-14.6,0,0-2.8,12.9-2.6,15.2h0Z"/>
    <path class="st6" d="M305,79.9s20-6.1,15.5-30.3c0,0-24,8.4-19.2,28.6,0,0,7.9-9.3,11.2-14.3,0,0-7,13.4-7.5,16.1h0Z"/>
    <path class="st6" d="M300,127.3s15-4.5,11.6-22.7c0,0-18,6.3-14.4,21.4,0,0,5.9-7,8.4-10.7,0,0-5.3,10.1-5.6,12h0Z"/>
    <path class="st6" d="M328.2,117.1s20.6-4.3,18.1-29.1c0,0-24.8,6.4-21.7,27,0,0,8.7-8.7,12.5-13.3,0,0-8.2,12.8-8.9,15.5h0Z"/>
    <path class="st6" d="M347.1,139.7s7,19.8,31.2,14.2c0,0-9.6-23.8-29.6-17.9,0,0,9.8,7.5,14.9,10.6,0,0-13.8-6.4-16.5-6.8Z"/>
    <path class="st6" d="M320.4,149.6s7,19.8,31.2,14.2c0,0-9.6-23.8-29.6-17.9,0,0,9.8,7.5,14.9,10.6,0,0-13.8-6.4-16.5-6.8Z"/>
    <path class="st6" d="M200.5,43.8s12.9-22-11.2-40c0,0-14.6,27.4,6.5,41.5,0,0-.7-14.9-1.8-22.1,0,0,4.8,17.8,6.6,20.6h0Z"/>
    <path class="st6" d="M91.9,96.9s-19.9-17.7-43.3,3.4c0,0,25.1,20.5,43.8,1.8,0,0-15.4-2.3-23-2.7,0,0,19.2-1.3,22.4-2.5h0Z"/>
    <path class="st6" d="M70.8,64.7s16.9-.7,20,15.5c0,0-17.4,2.8-20-15.5Z"/>
    <path class="st6" d="M149,46.5s7.8,15-5.6,24.7c0,0-9.9-14.6,5.6-24.7Z"/>
    <path class="st6" d="M199.5,77.4s15.6,6.6,11.5,22.6c0,0-16.9-4.9-11.5-22.6Z"/>
    <path class="st6" d="M210.1,0s12.5,6.3,8.2,19.3c0,0-13.7-5-8.2-19.3Z"/>
    <path class="st6" d="M307.8,36.1s2.6,10-6.7,14c0,0-3.9-10.1,6.7-14Z"/>
    <path class="st6" d="M369.2,117.8s-2.6,11.3-14,10.4c0,0,1.4-12.1,14-10.4Z"/>
    <path class="st6" d="M146.5,127.7s1.7-12.1,13.7-12.2c0,0-.3,12.7-13.7,12.2Z"/>
  </g>
  <path class="st22" d="M86.5,334.9s-3.5.1-3,4.1c0,0-9.3,8.4-20,11.5-8.9,2.6-12,6.5-12.7,10.8-.2,1.3.8,2.5,2.1,2.5h45.9c2.6,0,5.1-1,6.9-2.9h0c1.9-1.9,3-4.6,2.9-7.4l-.5-10.8-21.7-7.8h0Z"/>
  <path class="st14" d="M185.4,225.9s-30.1,21.9-7.2,72.7l41.6,7s49.2-82.6,3.3-97.8l-37.8,18.1h0Z"/>
  <path class="st22" d="M104.2,289.3s-6.7,5.3-2.7,11.8c0,0-6.5,17.6-15,33.8,0,0,5.9,11.4,21.7,7.8,0,0,4.5-7.2,10.4-12.9s10.7-16.9,10.7-16.9l-10.1-10.9-15-12.7h0Z"/>
  <path class="st22" d="M219.8,305.6l1.2,6c3.4,17-7.6,33.5-24.5,37h0s-30.7,8.8-66.2-34.8l-26-24.6s1.1-25.2,26.9-16.5c25.8,8.7,47,25.8,47,25.8l18.7-1.8,22.9,8.8h0Z"/>
  <path class="st22" d="M158.6,312.9c-2.9,8-.9,18.3.5,27-8.8-5.3-18.6-13.5-28.9-26.1l-26-24.6s1.1-25.2,26.9-16.5c9.1,3.1,17.6,7.2,24.9,11.2,2.4,5.8,6.4,18.2,2.6,28.9Z"/>
  <path class="st17" d="M242.7,239.4l-.5-.4c-.4-6.5-1.7-12.2-4.1-14.9-4.6-5.2-4.9-16.9-22.8-12.5l7.9-3.8c15.1,5,19.9,17.3,19.5,31.6h0Z"/>
  <path class="st22" d="M178.2,298.6l2.1-25.7c-4.5-4.2-19.9-6.5-31.5-9.1s-18.8-13.5-23.1-13.8-4.6,3.4-1.4,4.7,5.3,6,5.3,6l-6.1-1.8c-1.8-.5-3.6,1-3.4,2.8.6,6.1,5.6,9.5,5.6,9.5l29.6,18.1,22.8,9.1h0Z"/>
  <path class="st12" d="M181,230.2s38.4-24.5,46.8-17.4l-4.6-5s-13.8-2.2-39.5,15.7l-2.7,6.7h0Z"/>
  <path class="st11" d="M219.4,329.4c-3.8,9.6-12.1,17.1-22.9,19.3,0,0-2.5.7-7,.7-11.1,0-33.9-4.5-59.2-35.5l-1-.9s3.5-5.8,3.6-10.8c0,0-.4-8.3,6.1,5.1,6.6,13.5,33.1,35.6,53.8,31.8,17.3-3.2,25-10.7,26.7-9.6h0Z"/>
  <path class="st11" d="M221,311.7c.3,1.3.4,2.6.5,3.9l-6.6-1.1-25.3-16.7s18.9,5.6,26.9-14.1c8-19.7,22.8-28.3,22.8-47.1l3.4,2.9c-.7,29.1-22.9,66.2-22.9,66.2l1.2,6h0Z"/>
  <path class="st1" d="M181.1,222.2c-5.4-6.3-10.1-13.3-14.6-20.3,7.3-.5,14-3.8,18.4-9.4.6-.8,1.8,0,1.4.9-3.1,6.3-9.9,10.6-17,11.3l1.2-2.4c3.9,6.4,7.6,13,10.6,19.9h0Z"/>
  <path class="st1" d="M201.8,176.9c-15.2-3.1-21.8,2.2-26.2,14.6-.3.8-1.4.5-1.3-.3.2-2,.5-3.9,1.2-5.8,3.6-11.9,16.6-15,26.4-8.5h0Z"/>
  <g>
    <rect class="st2" x="67.6" y="228.7" width="22.9" height="11.9" transform="translate(-164.3 280.2) rotate(-82)"/>
    <rect class="st10" x="77.9" y="214.2" width="6.3" height="11.9" transform="translate(-148.2 269.8) rotate(-82)"/>
    <rect class="st10" x="29.5" y="287.6" width="89.4" height="5.9" transform="translate(-223.9 323.6) rotate(-82)"/>
    <rect class="st20" x="23.6" y="286.8" width="89.4" height="5.9" transform="translate(-228.1 317.1) rotate(-82)"/>
    <polyline class="st4" points="93.8 252.5 83.3 246.7 71.6 245.1 59.9 247.8"/>
  </g>
  <path class="st22" d="M180.3,273s10.1.2,11.1-7.2c1-7.4,3.5-31.8,23.9-43.5,20.4-11.7,29.7-3.1,28.8,15.1-.9,18.2-27.8,56.7-34.5,59.5-6.7,2.8-31.4,1.7-31.4,1.7"/>
  <path class="st12" d="M223.2,207.8s24.6.2,26.6,29.8,15.9,96.8,50.9,104.7c22.1,5,33.2,9.7,38.4,12.6,1,.5.5,2-.6,1.8-9.6-1.4-31.1-2.8-36.9,11.5-7.5,18.7-30.3,4.5-36.1-7-5.7-11.5-39.8,26.2-51.1-4.5s8.3-57.4,15.1-76.1,6.3-16.5,6.8-18.7,13.1-38.2-14.1-53.1l1.1-1.1h0Z"/>
  <path class="st21" d="M303.6,364.5h0c-.8,1.1-1.5,2.4-2.1,3.8-7.5,18.7-30.3,4.5-36.1-7h0c-.6-1.5-20.1-52.3-18.7-103,1.4-51.5-26.2-50.4-26.2-50.4h2.6s24.6.2,26.6,29.8c1.6,23.3,8.9,72.5,29.1,96.1q9,10.5,0,0c11.2,18,24.6,30.8,24.6,30.8h0Z"/>
  <path class="st1" d="M232.3,219.4c-9.9-.9-18.3,4.4-24.4,11.5-5.6,6.6-9.6,13.9-14.1,21.4.9-5.9,2.8-11.6,5.6-16.8,2.9-5.3,6.8-10.2,11.9-13.7,6-4.1,14.4-5.9,21-2.4h0Z"/>
  <path class="st12" d="M265.4,361.2c-5.8-11.4-39.8,26.2-51.1-4.5-11.3-30.7,11.9-56.5,15.1-76.1,6.7-41.2,1.1-46.9-21-65.5,0,0,37.2-24.7,38.4,43,.9,50.7,18.1,101.5,18.7,103h0Z"/>
  <path class="st3" d="M249.5,349.1c-4.4-21-12-63.3-6.8-86.2,0,0-6.5,21.1-12.3,32.9-5.9,11.8-16.8,37.7-8.8,55.5,3.3,7.2,8.9,10.3,14.4,11.4,8.1,1.6,15.1-5.5,13.4-13.5h0Z"/>
  <path class="st12" d="M181,230.2s27.1-14,40.9-2.8l-.7-9.8-10.3-3.9-26.4,11.8-3.5,4.7h0Z"/>
  <path class="st22" d="M181.8,273.7l1.3-1.3-6.3-1.5-.9.5s2.7,2.6,2.8,2.7,2.4.4,2.4.4l.6-.8h0Z"/>
  <path class="st1" d="M176.9,270.8s12.7,2.9,13.9,13.9c0,0,2.5-8.8-3.1-13.1l-10.8-.8h0Z"/>
  <path class="st5" d="M104.2,289.3h0s-6.7,5.3-2.7,11.8c0,0-6.5,17.6-15,33.8,0,0-3.5.1-3,4.1,0,0-9.3,8.4-20,11.5-8.9,2.6-12,6.5-12.7,10.8-.2,1,.4,2,1.3,2.4,1.5-3.4,6-9.3,18.3-10.3,17.5-1.5,24.4-21.3,29-31.9s12.2-37.2,19.3-40.5c7.2-3.3,12.6-2.5,15.9-6.3.1-.1.2-.3.2-.4-1.2-.5-2.4-.9-3.7-1.3-25.8-8.7-26.9,16.5-26.9,16.5h0Z"/>
  <path class="st11" d="M126.2,300.4c-6.3-7.8-22-11.1-22-11.1,0,0,.9-20.1,19.5-18.2-1.2,0-5.3,0-10.1,4-5.7,4.9-4.8,11,3.6,15.6,8.4,4.6,9,9.6,9,9.6h0Z"/>
  <path class="st1" d="M108.6,304.8c5.3.5,12.1,4.9,12.1,4.9-5.5-7.8-19.1-8.6-19.1-8.6,0,0-.7,1.9-1.9,5h0s3.7-1.8,9-1.4h0Z"/>
  <path class="st1" d="M103.1,340.9s-10.1-2.5-12.2-5.3-.3-8.7-.3-8.7h0c-1.3,2.6-2.6,5.3-4,8,4.9,7.9,16.5,5.9,16.5,5.9Z"/>
  <path class="st1" d="M83.5,339s-5.8,5.2-13.5,9h0s8.5-2.1,13-5.1c0,0,7.5,3.1,13.6,1.5,0,0-9.8-.5-13-5.3h0Z"/>
  <path class="st5" d="M134.8,274.1s-2.4-5.5,4.2-6.7c3.1-.5,5.9-2.1,8-4-10.5-3.2-17.3-13-21.4-13.4-4.2-.4-4.6,3.4-1.4,4.7s5.3,6,5.3,6l-6.1-1.8c-1.8-.5-3.6,1-3.4,2.8.6,6.1,5.6,9.5,5.6,9.5l7.4,4.6c.9-1,1.6-1.9,1.6-1.9h0Z"/>
  <path class="st1" d="M125.8,271.4c9.5,2.5,18.8,5.7,27.5,10.3,1.6.9,3.4,2,4.9,3.2.8.7,1.8,1.5,2.6,2.2,6.3,5.1,14,8.3,21.8,10.3,2.9.7,5.8,1.2,8.8,1.5-3,.2-6.1,0-9.1-.4-8.6-1.4-17.2-4.7-23.9-10.4-.5-.5-1.2-1-1.7-1.4-1.3-1.1-3.1-2.1-4.5-3-8.5-4.8-17.5-8.4-26.4-12.2h0Z"/>
  <g>
    <path class="st15" d="M535.4,131.2h24.6v58.9c0,25.4-13.4,41-30.7,45.7v33.3h-24.6v-33.1c-17.7-4.7-31.1-20.3-31.1-45.9v-58.9h24.6v58.9c0,17.9,8.5,24.4,18.7,24.4s18.5-6.5,18.5-24.4v-58.9h0Z"/>
    <path class="st15" d="M576.7,131.2h24.6v92.6c0,18.7,8.5,25.2,18.7,25.2s18.5-6.5,18.5-25.2v-92.6h24.6v92.6c0,32.1-20.3,48.2-43.1,48.2s-43.3-16.1-43.3-48.2v-92.6h0Z"/>
    <path class="st15" d="M766.4,208.2c8.5,8.9,13.2,21.9,13.2,38.8v22.1h-24.6v-20.9c0-23.8-8.7-32.3-26.2-32.3h-14.4v53.2h-24.6v-53.2h-12.8v-22.2h12.8v-62.4h45.7c33.3,0,49.6,17.7,49.6,41.8s-6.1,27.6-18.7,35.2h0ZM714.4,193.6h21.1c17.9,0,25.6-8.9,25.6-20.3s-8.1-19.5-26-19.5h-20.7v39.8h0Z"/>
    <path class="st15" d="M889,131.2v22.9h-33.7v115h-24.6v-115h-33.9v-22.9h92.2Z"/>
    <path class="st15" d="M899.9,235.4l23.6-7.1c2.4,13,10.6,20.5,22.1,20.5s17.9-6.1,17.9-16.7c0-23.6-58.3-29.5-58.3-68.1s16.9-36,38.4-36,38,13.4,42.1,34.5l-23,6.9c-2.2-12.4-9.1-17.9-18.3-17.9s-14.4,4.9-14.4,13.2c0,22.1,58.3,27.2,58.3,67.4s-18.7,40.2-42.1,40.2-41.4-15.2-46.3-36.6h0Z"/>
    <path class="st15" d="M1036.6,246.2h57.1v22.9h-81.7v-58.5h-12.8v-22.2h12.8v-57.1h57.7v22.6h-33.1v34.5h41.6v22.2h-41.6v35.6h0Z"/>
    <path class="st15" d="M1156.3,131.2h24.6v54.4c0,40.6-8.1,62.6-28.6,83.5h-26.6c-20.5-20.9-28.8-42.9-28.8-83.5v-54.4h24.6v56.1c0,32.1,7.3,51,17.3,65.6,10-14.6,17.3-33.5,17.3-65.6v-56.1h0Z"/>
    <path class="st15" d="M1233.5,246.2h57.1v22.9h-81.7v-58.5h-12.8v-22.2h12.8v-57.1h57.7v22.6h-33.1v34.5h41.6v22.2h-41.6v35.6h0Z"/>
    <path class="st15" d="M1385.9,208.2c8.5,8.9,13.2,21.9,13.2,38.8v22.1h-24.6v-20.9c0-23.8-8.7-32.3-26.2-32.3h-14.4v53.2h-24.6v-53.2h-12.8v-22.2h12.8v-62.4h45.7c33.3,0,49.6,17.7,49.6,41.8s-6.1,27.6-18.7,35.2h0ZM1333.9,193.6h21.1c17.9,0,25.6-8.9,25.6-20.3s-8.1-19.5-26-19.5h-20.7v39.8h0Z"/>
  </g>
</svg>