<?xml version="1.0" encoding="UTF-8"?>
<svg id="katman_2" data-name="katman 2" xmlns="http://www.w3.org/2000/svg" viewBox="0 0 1404.61 399.8">
  <defs>
    <style>
      .cls-1 {
        fill: #6d3a07;
      }

      .cls-2 {
        fill: #777;
      }

      .cls-3 {
        fill: #5b5758;
      }

      .cls-4 {
        fill: #bc223c;
      }

      .cls-5 {
        fill: none;
        stroke: #c4c4c4;
        stroke-linecap: round;
        stroke-linejoin: round;
        stroke-width: 17.97px;
      }

      .cls-6 {
        fill: #cecece;
      }

      .cls-7 {
        fill: #84964b;
      }

      .cls-8 {
        fill: #936427;
      }

      .cls-9 {
        fill: #7f4403;
      }

      .cls-10 {
        fill: #323520;
      }

      .cls-11 {
        fill: #c4c4c4;
      }

      .cls-12 {
        fill: #686868;
      }

      .cls-13 {
        fill: #ad1729;
      }

      .cls-14 {
        fill: #751227;
      }

      .cls-15 {
        fill: #9b9b98;
      }

      .cls-16 {
        fill: #4c2c0f;
      }

      .cls-17 {
        fill: #b27b2b;
      }

      .cls-18 {
        fill: #c0c1bb;
      }

      .cls-19 {
        fill: #84847e;
      }

      .cls-20 {
        fill: #e09620;
      }

      .cls-21 {
        fill: #eaeaea;
      }

      .cls-22 {
        fill: #96152b;
      }

      .cls-23 {
        fill: #afafae;
      }

      .cls-24 {
        fill: #0d4248;
      }

      .cls-25 {
        fill: #5b6339;
      }
    </style>
  </defs>
  <g id="katman_1" data-name="katman 1">
    <g>
      <g>
        <ellipse class="cls-7" cx="192.36" cy="351.1" rx="192.36" ry="48.7"/>
        <path class="cls-25" d="M346.2,364.14c-12.53,6.02-33.12,6.66-44.47,12.34-2.1.24-3.82.49-5.04.82-10.53,2.76-25.46,5.7-48.92.92-23.47-4.78-38.75,10.59-56.41-.19-17.64-10.78-54.96-8.04-82.71-8.92-124.71-4-13.87-10.1-13.87-10.1,0,0,1.74-14.66,3.94-19.39,2.21-4.73,16.35-26.31,23.78-33.98.61-.62,1.24-1.2,1.88-1.7,6.15-.39,12.8-1.08,19.88-1.99,1.98.67,3.96,1.52,5.94,2.51,10.01,5.03,23.96,11.72,52.67,22.51,28.72,10.78,46.91-13.68,82.56-.29,20.12,7.57,48.07,20.49,61.44,30.99,2.23,1.75,1.86,5.26-.69,6.49h0Z"/>
        <path class="cls-9" d="M191.91,344.87c-2.42.49-3.69-2.77-1.58-4.03,3.29-1.96,8.75-4.26,17.81-6.64,24.65-6.46,34.94-115.33,34.94-155.05s-35.41-75.01-79.68-70.11c-37.11,4.11-60.77-14.14-67.45-20.15-1.04-.94-.93-2.59.2-3.4h0c.91-.65,2.16-.53,2.91.3,3.94,4.42,17.86,16.96,48.55,16.35,2.01-.04,2.92-2.57,1.39-3.87-7.79-6.58-22.74-21.47-22.41-38.68.02-1.03.8-1.88,1.81-2.06l.17-.03c1.13-.2,2.22.48,2.51,1.59,2.03,7.66,11.6,35.33,44.52,39.55,33.03,4.23,50.56,11.67,62.52,25.62,1.49,1.73,4.31.31,3.79-1.91-3.42-14.67-14.32-43.36-48.19-57.56-45.39-19.03-53.25-36.87-55.46-50.22-.11-.7.12-1.4.62-1.9l.3-.3c1.09-1.09,2.92-.75,3.55.65,3.59,7.92,15.16,29.47,36.98,36.17,18.57,5.69,32.02,13.01,38.57,17,1.63.99,3.64-.41,3.29-2.28-2.08-10.75-4.79-36.37,9.71-59.86.49-.8,1.46-1.2,2.38-.99l2.23.51c1.31.3,2.05,1.67,1.57,2.93-3.55,9.18-15.11,43.29-1.56,67.52,12.5,22.35,20.35,37.43,23.32,46.61.62,1.9,3.22,2.12,4.08.31,4.82-10.1,14.54-30.89,17.47-40.22,3.95-12.56,3.47-22.49-4.91-35.05-7.38-11.07-9.37-22.42-8.51-30.45.16-1.52,1.83-2.36,3.19-1.67l.47.24c.75.38,1.22,1.15,1.19,2-.08,3.02.19,10.64,4.38,18.28,2.29,4.17,4.34,7.05,5.97,9.28,1.27,1.73,4,.81,3.97-1.34-.05-4.63-.34-10.52-1.22-15.96-.29-1.81,1.69-3.14,3.28-2.22l.94.54c.52.3.9.8,1.04,1.39,1.3,5.64,7.54,36.28-2.61,65.61-.64,1.86,1.26,3.56,3.03,2.7,5.51-2.69,14.17-6.77,18.64-8.05,6.25-1.79,16.66-11.8,20.47-24.59.49-1.64,2.53-2.17,3.7-.92l.56.6c.46.49.67,1.17.57,1.84-.26,1.73-.87,5.22-1.94,8.04-.58,1.53.66,3.11,2.28,2.94,2.65-.27,5.92-.47,8.02-.09.68.12,1.25.57,1.56,1.19l.28.57c.74,1.49-.36,3.25-2.02,3.18-5.08-.2-14.22.58-20.81,7.66-9.6,10.32-34.82,14.45-41.37,28.71-4.49,9.77-5.6,24.47-5.86,32.76-.06,2.04,2.45,3.05,3.82,1.54,6.09-6.77,18.89-18.42,34.98-18.68,19.8-.31,37.01-18.58,41.85-30.68.68-1.71,3.02-1.87,3.93-.28l.39.67c.26.46.36.98.25,1.51-.73,3.79-5.04,19.86-26.61,31.03-24.59,12.74-55.45,14.36-55.45,55.27s4.67,120.05,12.02,132.26c6.1,10.12,39.09,21.1,53.56,33.15,1.93,1.61.02,4.69-2.29,3.69-8.68-3.73-23.1-9.28-38.89-12.61-25.48-5.38-25.84-10.77-25.84-10.77,0,0,1.67,8.02,7.29,15.1,1.36,1.71-.25,4.13-2.35,3.49-6.76-2.07-16.18-6.15-20.98-13.59-.69-1.08-2.14-1.35-3.16-.57-4.77,3.64-17.54,12.58-31.13,15.15-2.08.39-3.46-2.11-2.02-3.66,1.8-1.93,3.94-4.3,5.91-6.67,1.49-1.78-.47-4.38-2.59-3.41-4.84,2.22-11.32,4.29-18.1,3.84-7.18-.46-13.43.33-17.79,1.21h0Z"/>
        <path class="cls-14" d="M215.87,201.58s26.54,3.77,28.56,23.25c1.47,14.09-38.04-16.69-37.35-17.01.69-.32,8.79-6.23,8.79-6.23h0Z"/>
        <path class="cls-23" d="M199.65,168.63s15.14,5.68,15.14,20.76c0,0-2.64,16.34,8.36,18.42l-16.77,10.28-21.03,7.86-1.67-2.4-4.67,3.36-16.63-24.65,2.16-1.87c2.47-2.11,4.04-5.11,4.25-8.35.51-7.23,3.86-20.64,21.58-23.27,0,0,2.51-13.52,17.04-13.52s17.11,14.23,17.11,14.23c0,0-1.85-4.24-8.55-5.38,0,0,8.55,5.62,8.55,16.92,0,9.81-2.07,16.16,5.84,20.56h0c1.13.92,2.56,1.56,4.33,1.87,0,0-14.3,3.65-15.98-11.13-1.67-14.77-4.6-26.79-19.08-23.69h0Z"/>
        <path class="cls-15" d="M214.79,189.39c0-15.07-15.14-20.76-15.14-20.76.11-.02.21-.03.32-.05-.47.03-.95.1-1.43.21,0,0,.11.09.3.27,1.81,1.68,11.14,10.89,8.21,20-3.24,10.07,5.68,23.68,6.51,23.34.27-.11,2.03-.65,4.26-1.33l5.33-3.27c-11-2.09-8.36-18.42-8.36-18.42h0Z"/>
        <path class="cls-1" d="M327.13,348.8c-4.52-2.69-21.65-8.58-33.71-16.42-12.06-7.84-15.05-13.81-22.14-29.6-7.09-15.8-14.07-38.49-15.55-57.09-.81-10.16-9.87-24.66-13.52-28.66-.7,9.31-1.32,15.03-2.54,25.23l3.01,15.6s20.27,74.53,20.39,76.52c.11,1.72,14.21,9,19.93,11.83-3.64-5.67-5-11.17-5.21-12.08.27.89,2.78,5.76,25.81,10.62,9.26,1.95,18.04,4.67,25.47,7.33.59-.78.29-1.95-1.93-3.27h0Z"/>
        <path class="cls-10" d="M100.75,346.31s-57.75,15.76-48.36,17.45c40.49,7.28,103.7-.09,113.68,0s27.35-.55,32.2,2.95c12.22,8.82,23.01,3.31,35.23,2.39,12.22-.92,24.48-6.15,31.88-.74,7.4,5.41,15.75,8.94,23.53,8.94s13.52-8.38,23.04-12.58c9.52-4.2,31.33-5.86,26.9-8.06-4.42-2.2-106.57-17.66-106.57-17.66l-48.17-7.49-83.37,14.8h0Z"/>
        <path class="cls-19" d="M184.46,225.9s-19.02,12.63-31.17,47.4l45.1.72,3.31-33.01-17.23-15.12h0Z"/>
        <path class="cls-8" d="M120.15,212.61s2.85,1.64,3.5,4.44l-5.13,17.21-6.76,1.34-1.13-4.19,8.39-18.49,1.14-.3h0Z"/>
        <path class="cls-17" d="M130.13,221.59c.02-5.06-3.1-8.68-3.1-8.68l-11.2,13.75c-.97,1.48-1.82,3.03-2.55,4.65h0c-.31.68-.39,1.45-.24,2.18l.61,3.03,16.98-4.86-.51-10.06h0Z"/>
        <path class="cls-20" d="M142.8,221.38l-3.51-4.33s-20.47,9.11-24.7,16.06l3.94,4.27s24.52-11.66,24.87-11.72c.35-.07-.6-4.28-.6-4.28h0Z"/>
        <path class="cls-24" d="M118.5,211.51l-8.7,17.99c-1.18,2.43-1.07,5.29.29,7.63l21.77,37.4,35.5-14.28-21.61-40.1-31.23,12.98c-1.41.58-2.99-.31-3.21-1.82h0l8.82-18.69-1.66-1.1h0Z"/>
        <g>
          <path class="cls-7" d="M182.37,117s-20.19,1.79-20.73,25.75c0,0,24.5-3.23,23.87-23.33,0,0-9.33,7.31-13.46,11.35,0,0,9.33-11.35,10.32-13.77h0Z"/>
          <path class="cls-7" d="M133.27,115.42s-19.59,5.22-16.02,28.92c0,0,23.58-7.37,19.53-27.07,0,0-7.95,8.8-11.32,13.48,0,0,7.25-12.78,7.81-15.33Z"/>
          <path class="cls-7" d="M113.51,110.47s-19.59-5.22-28.29,17.11c0,0,24.12,5.34,30.41-13.76,0,0-11.27,3.68-16.53,6.06,0,0,12.65-7.47,14.41-9.41Z"/>
          <path class="cls-7" d="M119.59,80.27s6.23-23.37-20.42-33.76c0,0-6.38,28.79,16.42,36.29,0,0-4.39-13.45-7.23-19.73,0,0,8.92,15.1,11.23,17.19h0Z"/>
          <path class="cls-7" d="M184.63,89.17s1.45-21.68-23.84-26.23c0,0-.64,26.49,20.75,29.16,0,0-6.2-11.1-9.79-16.14,0,0,10.47,11.77,12.88,13.22Z"/>
          <path class="cls-7" d="M139.46,35.15s-11.69-14.83-30.65-3.04c0,0,15.01,17.46,30.36,6.72,0,0-10.46-3.55-15.71-4.71,0,0,13.61,1.49,16,1.03h0Z"/>
          <path class="cls-7" d="M174.23,32.41s6.78-17.63-13.04-27.91c0,0-7.35,21.82,9.72,29.55,0,0-2.29-10.81-3.97-15.92,0,0,5.66,12.47,7.29,14.29h0Z"/>
          <path class="cls-7" d="M247.56,70.58s17.99-5.08,14.37-26.88c0,0-21.64,7.12-17.63,25.22,0,0,7.2-8.22,10.25-12.59,0,0-6.51,11.88-6.99,14.25h0Z"/>
          <path class="cls-7" d="M242.05,40.21s19.55-6.71,14.23-30.56c0,0-23.46,9.18-17.93,28.93,0,0,7.45-9.52,10.55-14.53,0,0-6.47,13.52-6.85,16.16h0Z"/>
          <path class="cls-7" d="M262.54,97.41s15.41-9.69,6.03-29.07c0,0-18.27,12.6-9.53,28.41,0,0,4.47-9.67,6.12-14.58,0,0-2.82,12.89-2.61,15.23h0Z"/>
          <path class="cls-7" d="M305.03,79.87s19.99-6.06,15.48-30.35c0,0-24.04,8.41-19.16,28.56,0,0,7.88-9.34,11.19-14.29,0,0-7.02,13.42-7.51,16.07Z"/>
          <path class="cls-7" d="M300.04,127.33s14.99-4.54,11.61-22.74c0,0-18.02,6.3-14.36,21.41,0,0,5.9-7,8.38-10.71,0,0-5.26,10.05-5.63,12.04h0Z"/>
          <path class="cls-7" d="M328.24,117.07s20.57-4.34,18.15-29.09c0,0-24.83,6.36-21.68,26.98,0,0,8.7-8.69,12.45-13.35,0,0-8.2,12.85-8.92,15.46h0Z"/>
          <path class="cls-7" d="M347.13,139.67s7.01,19.82,31.23,14.16c0,0-9.57-23.77-29.6-17.95,0,0,9.76,7.48,14.88,10.59,0,0-13.81-6.44-16.51-6.8Z"/>
          <path class="cls-7" d="M320.4,149.61s7.01,19.82,31.23,14.16c0,0-9.57-23.77-29.6-17.95,0,0,9.76,7.48,14.88,10.59,0,0-13.81-6.44-16.51-6.8Z"/>
          <path class="cls-7" d="M200.47,43.78s12.91-21.98-11.23-40.03c0,0-14.58,27.44,6.46,41.48,0,0-.67-14.9-1.79-22.07,0,0,4.81,17.84,6.57,20.62h0Z"/>
          <path class="cls-7" d="M91.86,96.89s-19.89-17.68-43.27,3.36c0,0,25.13,20.51,43.78,1.81,0,0-15.39-2.34-22.97-2.65,0,0,19.25-1.3,22.45-2.53Z"/>
          <path class="cls-7" d="M70.75,64.66s16.87-.72,20.01,15.52c0,0-17.41,2.78-20.01-15.52Z"/>
          <path class="cls-7" d="M149.02,46.51s7.81,14.97-5.57,24.71c0,0-9.9-14.59,5.57-24.71Z"/>
          <path class="cls-7" d="M199.48,77.36s15.56,6.56,11.47,22.58c0,0-16.93-4.92-11.47-22.58Z"/>
          <path class="cls-7" d="M210.06,0s12.49,6.3,8.2,19.31c0,0-13.71-5.02-8.2-19.31Z"/>
          <path class="cls-7" d="M307.76,36.06s2.63,10.02-6.69,14.02c0,0-3.94-10.07,6.69-14.02Z"/>
          <path class="cls-7" d="M369.16,117.82s-2.63,11.33-14,10.42c0,0,1.36-12.07,14-10.42Z"/>
          <path class="cls-7" d="M146.53,127.71s1.71-12.09,13.68-12.18c0,0-.32,12.74-13.68,12.18Z"/>
        </g>
        <path class="cls-23" d="M86.53,334.93s-3.47.12-2.99,4.07c0,0-9.33,8.37-19.98,11.49-8.9,2.6-11.95,6.54-12.71,10.76-.23,1.31.75,2.52,2.08,2.52h45.93c2.6,0,5.09-1.03,6.93-2.87h0c1.94-1.94,2.98-4.62,2.86-7.36l-.47-10.76-21.66-7.84h0Z"/>
        <path class="cls-15" d="M185.35,225.94s-30.15,21.89-7.18,72.68l41.64,7s49.2-82.58,3.34-97.81l-37.8,18.13h0Z"/>
        <path class="cls-23" d="M104.24,289.29s-6.73,5.29-2.69,11.84c0,0-6.52,17.65-15.01,33.8,0,0,5.86,11.43,21.66,7.84,0,0,4.53-7.22,10.36-12.92,5.83-5.7,10.74-16.88,10.74-16.88l-10.08-10.93-14.97-12.74h0Z"/>
        <path class="cls-23" d="M219.81,305.62l1.2,6.05c3.37,16.98-7.58,33.51-24.53,37.02h0s-30.69,8.79-66.22-34.82l-26.02-24.59s1.08-25.21,26.92-16.51c25.84,8.7,47.02,25.84,47.02,25.84l18.74-1.84,22.89,8.84h0Z"/>
        <path class="cls-23" d="M158.6,312.91c-2.89,7.97-.94,18.27.54,27.02-8.82-5.3-18.63-13.5-28.86-26.06l-26.04-24.58s1.08-25.21,26.91-16.5c9.11,3.07,17.64,7.16,24.88,11.22,2.37,5.75,6.43,18.18,2.57,28.9Z"/>
        <path class="cls-18" d="M242.67,239.42l-.54-.45c-.42-6.47-1.7-12.2-4.05-14.87-4.57-5.21-4.88-16.88-22.82-12.52l7.88-3.78c15.11,5.01,19.91,17.33,19.52,31.62h0Z"/>
        <path class="cls-23" d="M178.18,298.62l2.09-25.66c-4.49-4.25-19.92-6.52-31.47-9.09-11.55-2.57-18.84-13.46-23.09-13.82-4.25-.36-4.61,3.41-1.38,4.73,3.23,1.32,5.32,5.98,5.32,5.98l-6.06-1.76c-1.81-.53-3.6.95-3.4,2.84.61,6.07,5.6,9.55,5.6,9.55l29.59,18.15,22.79,9.09Z"/>
        <path class="cls-13" d="M180.96,230.2s38.42-24.51,46.84-17.43l-4.64-4.97s-13.76-2.24-39.47,15.73l-2.72,6.66h0Z"/>
        <path class="cls-12" d="M219.43,329.36c-3.77,9.56-12.14,17.09-22.95,19.33,0,0-2.53.72-6.98.72-11.05,0-33.92-4.46-59.24-35.54l-.97-.92s3.46-5.83,3.55-10.84c0,0-.44-8.34,6.11,5.11,6.55,13.46,33.11,35.62,53.75,31.76,17.27-3.23,24.98-10.73,26.72-9.63h0Z"/>
        <path class="cls-12" d="M221.01,311.67c.26,1.3.43,2.61.52,3.91l-6.61-1.15-25.31-16.69s18.89,5.63,26.91-14.11c8.03-19.74,22.84-28.31,22.8-47.05l3.36,2.85c-.74,29.05-22.87,66.2-22.87,66.2l1.21,6.05h0Z"/>
        <path class="cls-2" d="M181.14,222.23c-5.44-6.34-10.14-13.28-14.59-20.34,7.29-.53,14.01-3.78,18.37-9.38.61-.79,1.84,0,1.4.88-3.12,6.27-9.92,10.6-16.96,11.32l1.2-2.41c3.9,6.43,7.6,13,10.58,19.92h0Z"/>
        <path class="cls-2" d="M201.83,176.95c-15.19-3.12-21.81,2.21-26.24,14.61-.27.76-1.4.52-1.33-.28.16-1.96.54-3.91,1.18-5.82,3.58-11.9,16.59-14.99,26.39-8.51h0Z"/>
        <g>
          <rect class="cls-3" x="67.57" y="228.65" width="22.88" height="11.85" transform="translate(-164.27 280.22) rotate(-82.01)"/>
          <rect class="cls-11" x="77.9" y="214.22" width="6.28" height="11.85" transform="translate(-148.23 269.79) rotate(-82.01)"/>
          <rect class="cls-11" x="29.45" y="287.62" width="89.38" height="5.92" transform="translate(-223.92 323.61) rotate(-82.01)"/>
          <rect class="cls-21" x="23.59" y="286.79" width="89.38" height="5.92" transform="translate(-228.15 317.09) rotate(-82.01)"/>
          <polyline class="cls-5" points="93.79 252.51 83.29 246.73 71.56 245.08 59.87 247.75"/>
        </g>
        <path class="cls-7" d="M16.31,332.39s3.54-6.16,6.16-3.45c2.61,2.71,4.1,4.69,6.06,2.94,1.96-1.75,5.69-.13,5.88,1.36s-3.27,3.64-6.35,3.64-11.75-4.48-11.75-4.48h0Z"/>
        <path class="cls-23" d="M180.27,272.96s10.1.23,11.11-7.21c1-7.44,3.51-31.79,23.89-43.51,20.38-11.71,29.71-3.05,28.78,15.15-.93,18.2-27.8,56.72-34.52,59.52-6.71,2.8-31.35,1.72-31.35,1.72"/>
        <path class="cls-13" d="M223.16,207.81s24.65.18,26.62,29.79,15.86,96.83,50.86,104.73c22.08,4.99,33.19,9.74,38.37,12.56.95.52.47,1.97-.6,1.81-9.58-1.41-31.14-2.84-36.94,11.55-7.54,18.66-30.33,4.49-36.07-7-5.74-11.49-39.84,26.2-51.15-4.49-11.31-30.69,8.26-57.43,15.07-76.09s6.28-16.51,6.82-18.66,13.13-38.25-14.06-53.12l1.08-1.08h0Z"/>
        <path class="cls-22" d="M303.57,364.48h0c-.83,1.11-1.54,2.36-2.11,3.77-7.54,18.67-30.33,4.49-36.07-7,0,0,0,0,0-.03-.59-1.52-20.1-52.29-18.69-103,1.43-51.49-26.17-50.4-26.17-50.4h2.64s24.65.18,26.62,29.8c1.55,23.35,8.91,72.51,29.14,96.1q13.48,15.73,0,.02c11.2,18.04,24.65,30.75,24.65,30.75h0Z"/>
        <path class="cls-2" d="M232.29,219.45c-9.87-.95-18.28,4.4-24.39,11.51-5.64,6.55-9.57,13.95-14.05,21.41.87-5.85,2.83-11.56,5.61-16.8,2.88-5.34,6.8-10.25,11.85-13.7,5.98-4.09,14.35-5.95,20.98-2.41h0Z"/>
        <path class="cls-13" d="M265.38,361.21c-5.79-11.37-39.84,26.21-51.14-4.45-11.31-30.69,11.89-56.49,15.07-76.09,6.7-41.25,1.1-46.88-21.04-65.46,0,0,37.19-24.69,38.4,43,.91,50.73,18.1,101.48,18.69,103h0Z"/>
        <path class="cls-4" d="M249.53,349.11c-4.44-21.03-12.02-63.29-6.82-86.21,0,0-6.46,21.08-12.33,32.92-5.87,11.84-16.82,37.66-8.75,55.46,3.26,7.18,8.89,10.26,14.45,11.38,8.05,1.62,15.15-5.52,13.45-13.55h0Z"/>
        <path class="cls-13" d="M180.96,230.2s27.12-14.02,40.86-2.77l-.72-9.83-10.29-3.87-26.37,11.78-3.47,4.69h0Z"/>
        <path class="cls-23" d="M181.84,273.66l1.32-1.27-6.28-1.55-.86.53s2.74,2.65,2.83,2.69,2.42.38,2.42.38l.58-.79h0Z"/>
        <path class="cls-2" d="M176.87,270.84s12.69,2.91,13.95,13.86c0,0,2.51-8.79-3.14-13.1l-10.81-.76h0Z"/>
        <path class="cls-6" d="M104.24,289.28h0s-6.73,5.3-2.69,11.84c0,0-6.52,17.65-15.01,33.8,0,0-3.47.12-2.99,4.07,0,0-9.33,8.37-19.98,11.49-8.9,2.6-11.95,6.54-12.71,10.76-.18,1.03.39,1.99,1.3,2.35,1.55-3.4,5.97-9.29,18.26-10.33,17.47-1.47,24.44-21.3,28.96-31.9s12.17-37.2,19.34-40.54c7.17-3.34,12.63-2.48,15.94-6.3.13-.15.18-.29.18-.44-1.21-.45-2.44-.89-3.67-1.31-25.84-8.71-26.91,16.5-26.91,16.5h0Z"/>
        <path class="cls-12" d="M126.22,300.37c-6.34-7.79-21.97-11.09-21.97-11.09,0,0,.86-20.15,19.51-18.2-1.24-.09-5.33-.03-10.1,4.04-5.74,4.91-4.78,11,3.58,15.63,8.37,4.63,8.98,9.62,8.98,9.62h0Z"/>
        <path class="cls-2" d="M108.59,304.83c5.26.45,12.05,4.91,12.05,4.91-5.47-7.81-19.1-8.6-19.1-8.6,0,0-.71,1.91-1.95,5.05h0s3.74-1.8,9-1.35h0Z"/>
        <path class="cls-2" d="M103.06,340.87s-10.11-2.51-12.2-5.26-.33-8.66-.33-8.66h0c-1.27,2.65-2.61,5.33-4,7.98,4.95,7.94,16.53,5.94,16.53,5.94Z"/>
        <path class="cls-2" d="M83.54,339s-5.84,5.23-13.54,8.96h0s8.48-2.12,12.97-5.11c0,0,7.48,3.11,13.58,1.5,0,0-9.85-.45-13-5.34Z"/>
        <path class="cls-6" d="M134.83,274.09s-2.37-5.54,4.2-6.71c3.1-.55,5.9-2.1,8.04-3.97-10.54-3.2-17.32-13.02-21.36-13.35-4.25-.36-4.61,3.41-1.38,4.73,3.23,1.32,5.32,5.98,5.32,5.98l-6.06-1.76c-1.81-.53-3.6.95-3.4,2.84.61,6.07,5.6,9.55,5.6,9.55l7.45,4.57c.85-1,1.58-1.85,1.58-1.85h0Z"/>
        <path class="cls-2" d="M125.8,271.38c9.48,2.45,18.83,5.72,27.51,10.33,1.59.93,3.44,2.01,4.85,3.18.82.67,1.79,1.52,2.57,2.21,6.33,5.07,13.98,8.31,21.81,10.31,2.89.73,5.83,1.23,8.83,1.48-3.01.25-6.05.04-9.05-.4-8.62-1.42-17.23-4.68-23.9-10.44-.51-.45-1.16-1-1.67-1.43-1.3-1.09-3.06-2.14-4.52-3.04-8.46-4.78-17.48-8.39-26.44-12.22h0Z"/>
      </g>
      <g>
        <path class="cls-16" d="M535.36,131.17h24.62v58.89c0,25.41-13.39,40.96-30.72,45.69v33.28h-24.62v-33.09c-17.72-4.73-31.12-20.28-31.12-45.89v-58.89h24.62v58.89c0,17.92,8.47,24.42,18.71,24.42s18.51-6.5,18.51-24.42v-58.89Z"/>
        <path class="cls-16" d="M576.72,131.17h24.62v92.56c0,18.71,8.47,25.21,18.71,25.21s18.51-6.5,18.51-25.21v-92.56h24.62v92.56c0,32.1-20.28,48.25-43.13,48.25s-43.33-16.15-43.33-48.25v-92.56Z"/>
        <path class="cls-16" d="M766.36,208.17c8.47,8.86,13.2,21.86,13.2,38.8v22.06h-24.62v-20.88c0-23.83-8.67-32.3-26.19-32.3h-14.38v53.17h-24.62v-53.17h-12.8v-22.25h12.8v-62.43h45.69c33.28,0,49.63,17.72,49.63,41.75,0,14.57-6.11,27.57-18.71,35.25ZM714.37,193.6h21.07c17.92,0,25.6-8.86,25.6-20.29s-8.07-19.5-26-19.5h-20.68v39.78Z"/>
        <path class="cls-16" d="M889.05,131.17v22.85h-33.68v115.01h-24.62v-115.01h-33.87v-22.85h92.17Z"/>
        <path class="cls-16" d="M899.88,235.35l23.63-7.09c2.36,13,10.63,20.48,22.06,20.48,9.65,0,17.92-6.11,17.92-16.74,0-23.63-58.29-29.54-58.29-68.14,0-22.65,16.94-36.04,38.4-36.04,23.44,0,38.01,13.39,42.14,34.46l-23.04,6.89c-2.17-12.41-9.06-17.92-18.32-17.92-8.07,0-14.38,4.92-14.38,13.19,0,22.06,58.29,27.18,58.29,67.35,0,25.21-18.71,40.18-42.14,40.18-25.41,0-41.36-15.16-46.28-36.63Z"/>
        <path class="cls-16" d="M1036.55,246.18h57.11v22.85h-81.73v-58.49h-12.8v-22.25h12.8v-57.11h57.7v22.65h-33.08v34.46h41.55v22.25h-41.55v35.65Z"/>
        <path class="cls-16" d="M1156.28,131.17h24.62v54.36c0,40.57-8.07,62.63-28.56,83.5h-26.59c-20.48-20.88-28.75-42.93-28.75-83.5v-54.36h24.62v56.13c0,32.1,7.29,51.01,17.33,65.58,10.04-14.57,17.33-33.48,17.33-65.58v-56.13Z"/>
        <path class="cls-16" d="M1233.48,246.18h57.11v22.85h-81.73v-58.49h-12.8v-22.25h12.8v-57.11h57.7v22.65h-33.08v34.46h41.55v22.25h-41.55v35.65Z"/>
        <path class="cls-16" d="M1385.9,208.17c8.47,8.86,13.19,21.86,13.19,38.8v22.06h-24.62v-20.88c0-23.83-8.66-32.3-26.19-32.3h-14.38v53.17h-24.62v-53.17h-12.8v-22.25h12.8v-62.43h45.69c33.28,0,49.63,17.72,49.63,41.75,0,14.57-6.1,27.57-18.71,35.25ZM1333.91,193.6h21.07c17.92,0,25.6-8.86,25.6-20.29s-8.07-19.5-26-19.5h-20.68v39.78Z"/>
      </g>
    </g>
  </g>
</svg>